<?xml version="1.0" encoding="utf-8"?>
<!-- Generator: Adobe Illustrator 25.4.1, SVG Export Plug-In . SVG Version: 6.00 Build 0)  -->
<svg version="1.1" id="Layer_1" xmlns="http://www.w3.org/2000/svg" xmlns:xlink="http://www.w3.org/1999/xlink" x="0px" y="0px"
	 viewBox="0 0 60 60" style="enable-background:new 0 0 60 60;" xml:space="preserve">
<style type="text/css">
	.st0{fill:#3C3C3C;}
	.st1{display:none;}
	.st2{display:inline;fill:#666666;}
	.st3{fill:#FFFFFF;}
</style>
<g id="BG">
	<rect class="st0" width="60" height="60"/>
</g>
<g id="Top" class="st1">
	<path class="st2" d="M30,13c-9.4,0-17,7.6-17,17s7.6,17,17,17s17-7.6,17-17S39.4,13,30,13z M17.6,30c0-6.8,5.5-12.4,12.3-12.4
		c2.5,0,4.9,0.7,7,2.2L19.8,37C18.4,34.9,17.6,32.5,17.6,30z M30,42.4c-2.5,0-4.9-0.7-7-2.1L40.2,23c3.8,5.7,2.4,13.3-3.3,17.2
		C34.9,41.6,32.5,42.4,30,42.4z"/>
</g>
<rect x="29" y="6.6" transform="matrix(0.7071 -0.7071 0.7071 0.7071 -12.4264 30)" class="st3" width="2" height="46.9"/>
</svg>
