<?xml version="1.0" encoding="utf-8"?>
<!-- Generator: Adobe Illustrator 26.2.1, SVG Export Plug-In . SVG Version: 6.00 Build 0)  -->
<svg version="1.1" id="Layer_1" xmlns="http://www.w3.org/2000/svg" xmlns:xlink="http://www.w3.org/1999/xlink" x="0px" y="0px"
	 viewBox="0 0 426 362.6" style="enable-background:new 0 0 426 362.6;" xml:space="preserve">
<style type="text/css">
	.st0{fill:#FFFFFF;}
</style>
<g id="Camada_2">
	<g id="Camada_11">
		<g id="Camada_2-2">
			<g id="Camada_10">
				<polygon class="st0" points="426,168.7 363.5,168.7 213,48.2 62.5,168.7 0.1,168.7 213,0 				"/>
				<polygon class="st0" points="213,70.7 89.6,168.7 148.7,168.7 213,117.4 277.4,168.7 336.5,168.7 				"/>
			</g>
		</g>
		<g id="Camada_2-3">
			<g id="Camada_1-2">
				<path class="st0" d="M30.4,284.5V182.3H0v102.2H30.4z M134.6,245.6l-55.1-63.3h-37v102.2h30.4v-58.3l50.9,58.3h41.1V182.3h-30.3
					V245.6z M265.1,182.3v39.5h-57.7v-39.5h-30.4v102.2h30.4V246h57.7v38.5h30.4V182.3L265.1,182.3z M426,213
					c0-4.3-0.9-8.5-2.6-12.5c-2.6-5.8-7-10.5-12.5-13.5c-9-5.2-24.3-7.8-46.1-7.8h-0.4c-21.4,0-36.5,2.6-45.3,7.7
					c-5.4,3-9.8,7.7-12.3,13.3c-1.8,4.3-2.7,8.9-2.6,13.6c0,5.2,0.9,9.5,2.7,13c3.3,6.1,8.5,10.8,14.9,13.6
					c3.7,1.6,7.7,2.7,11.7,3.3c4.8,0.8,9.4,1.3,14,1.7s10.3,0.5,17,0.7l18.5,1c2.2,0.1,4.3,0.6,6.3,1.4c2.2,0.6,3.8,2.5,3.9,4.8
					c0.3,4.2-2.7,7.1-9.1,8.5c-4.1,0.9-10.5,1.3-19.1,1.3h-0.3c-9,0-15.7-0.5-19.9-1.4c-2.6-0.4-5-1.6-6.9-3.3c-1.4-1.3-2-3.5-2-6.8
					V251h-32.4v3c0,4.2,0.9,8.4,2.6,12.3c2.5,5.7,6.9,10.5,12.4,13.5c8.9,5.1,24.1,7.6,45.7,7.6h0.6c21.2-0.1,36.4-2.7,45.6-7.9
					c5.5-3,9.8-7.6,12.4-13.2c1.8-4.3,2.7-8.9,2.6-13.6c0.2-4.5-0.8-8.9-2.8-12.9c-3.3-6.5-8.9-10.9-15.1-13.5
					c-3.8-1.6-7.7-2.7-11.7-3.3c-4.7-0.8-9.4-1.4-14.2-1.8c-4.6-0.4-10.4-0.6-17.3-0.7l-18.3-1.1c-2.1-0.3-4.3-0.7-6.4-1.2
					c-2.2-0.5-3.8-2.3-4.1-4.5c-0.6-4.2,2.2-7,8.3-8.6c4.1-1,10.5-1.5,19.4-1.6h1.4c9,0.1,15.5,0.5,19.7,1.4c2.6,0.4,5,1.5,7,3.2
					c1.3,1.2,2,3.4,2,6.7v0.9H426V213z"/>
			</g>
		</g>
		<path class="st0" d="M109.4,299.9v30.4c-0.2,6.9-1.7,10.7-4.6,12.9c-0.9,0.7-1.8,1.2-2.8,1.7c-1,0.4-2.1,0.7-3.2,0.8
			c-1,0.2-2,0.3-3,0.4c-0.7,0-1.6,0-2.8,0H34.7c-1.2,0-2.1,0-2.9,0c-1-0.1-2-0.2-3-0.4c-1.1-0.2-2.1-0.5-3.1-0.9
			c-2.1-1-4-2.6-5.2-4.6c-1.5-3.1-2.2-6.5-2.1-10H0.1c-0.1,5.1,0.8,10.2,2.7,14.9c1.7,4.3,4.6,8.1,8.3,10.8
			c5.7,4.4,13.6,6.6,23.6,6.6h58.5c4.1,0,8.2-0.4,12.2-1.3c4.2-1,8.1-2.8,11.5-5.3c3.7-2.8,6.5-6.6,8.2-10.9
			c1.8-4.7,2.7-9.7,2.6-14.8v-30.4L109.4,299.9z M151.9,360.8v-60.9h-18.3v60.9H151.9z M271,343.8l-90.7-43.9h-21.4v60.9h18.3v-40.6
			l88.3,40.6h23.6v-60.9H271L271,343.8z M426,299.8h-32.1l-35.6,20.6l-35.5-20.6h-32.3l51.5,30.4l-51.5,30.5h32.3l35.5-20.8
			l35.6,20.8H426l-51.4-30.5L426,299.8z"/>
	</g>
</g>
</svg>
