<?xml version="1.0" encoding="utf-8"?>
<!-- Generator: Adobe Illustrator 26.0.2, SVG Export Plug-In . SVG Version: 6.00 Build 0)  -->
<svg version="1.1" id="Layer_1" xmlns="http://www.w3.org/2000/svg" xmlns:xlink="http://www.w3.org/1999/xlink" x="0px" y="0px"
	 viewBox="0 0 308 560" style="enable-background:new 0 0 308 560;" xml:space="preserve">
<style type="text/css">
	.st0{fill:#FFFFFF;}
</style>
<g id="Top">
	<path class="st0" d="M127,217l25.5,24l6-7.5c0,0,6-37.5-27-76.5c7.5,21,12,42,12,51c-6-13.5-21-25.5-27-27C127,193,127,217,127,217
		z"/>
	<path class="st0" d="M155.5,188.5c0,0,7.5-21,21-31.5c-4.5,12-11.5,30.5-14.5,53C160.7,202.6,158.5,195.4,155.5,188.5z"/>
	<path class="st0" d="M163,230l13-14c0,0,4-23.5,14.5-34C178.5,188,163,206,163,230z"/>
</g>
</svg>
