<svg xmlns="http://www.w3.org/2000/svg" viewBox="0 0 1031.12 1238.65"><defs><style>.cls-1{fill:#fefdff;}</style></defs><g id="Layer_2" data-name="Layer 2"><g id="Layer_2-2" data-name="Layer 2"><path class="cls-1" d="M358.75,833.18H335.51V725.42h40.9c14.49,0,22.18,2.11,27.92,7.85,5.43,5.43,7.85,12.68,7.85,23.84,0,18.57-5.59,27.47-19.47,31.4L416,833.18H390.29l-20.22-42.86H358.75Zm15.7-60.67c10.71,0,14.79-3.92,14.79-14.34s-4.08-14.34-15.1-14.34H358.3v28.68Z"/><path class="cls-1" d="M433.31,725.42h37.58c29.13-.45,42.41,13,41.65,42.11v23.54c.76,29.13-12.37,42.41-41.65,42.11H433.31Zm33.35,89.35c17.51.15,22.34-5.13,22.64-25.51V769.34c-.3-20.37-5.13-25.66-22.64-25.51H456.55v70.94Z"/><path class="cls-1" d="M534.43,725.42h67v18.87H557.67V770.1h36.52V789H557.67v44.22H534.43Z"/><path class="cls-1" d="M606.12,725.42h25.35l20.08,33.81,18-33.81h24.3L663.47,779l32.15,54.18H670.26l-22.18-37.43-19.93,37.43h-24.3l32.3-57.2Z"/><path class="cls-1" d="M0,891.13H44v168.34h86v35.72H0Z"/><path class="cls-1" d="M156.33,891.13H285.22v35.73H199.77V974.3h72.3V1010h-72.3v49.45h86.59v35.72h-130Z"/><path class="cls-1" d="M367.24,1056.9l-12,38.29H307.79l73.74-204.06h42.58l74,204.06H450.4l-11.72-38.29Zm36-114.32L377.81,1022h50.3Z"/><path class="cls-1" d="M593.29,980.87H667.6V1016c0,30-3.43,44.58-14,58-13.44,16.87-32.58,24.29-63.74,24.29-30.58,0-49.72-7.42-62.87-24.57-10-13.15-13.72-28.87-13.72-58v-44.3c0-31.72,4.57-48.3,16.86-61.73,13.43-14.86,31.15-21.15,59.16-21.15,47.44,0,70.59,19.44,72.31,60.59L621.3,952c-2.29-19.15-12-28-31.44-28-24.57,0-32.58,12.29-32.58,50.59v37.72c0,38.58,7.72,50.59,33.16,50.59,23.43,0,33.43-11.15,33.43-37.16v-11.43H593.29Z"/><path class="cls-1" d="M749.05,891.13v127.76c0,16.57,1.14,24.57,4.28,30.86,4.86,9.43,12.29,13.15,27.15,13.15,16,0,23.44-4.29,28-15.44,2.57-6,3.43-14,3.43-28.57V891.13h44v127.76c0,30.57-2.85,44-12.57,56-13.43,16.58-31.72,23.43-62.88,23.43-32.86,0-52.87-8.28-65.44-27.15-7.43-11.43-10-24.29-10-52.29V891.13Z"/><path class="cls-1" d="M901.09,891.13H1030v35.73H944.53V974.3h72.3V1010h-72.3v49.45h86.59v35.72h-130Z"/><path class="cls-1" d="M447.44,1177.48h13v49.69h25.39v10.55H447.44Z"/><path class="cls-1" d="M493.42,1200.51c0-9,1.35-13.92,5.06-17.8,4-4.38,9.19-6.16,17.71-6.16,9.12,0,14.77,2.11,18.73,7.17,3,3.8,4.14,8.44,4.14,16.79v14.18c0,9-1.35,13.92-5.06,17.8-4,4.39-9.2,6.16-17.81,6.16-9,0-14.68-2.11-18.64-7.17-2.95-3.72-4.13-8.53-4.13-16.79Zm32.65,1.1c0-11-2.45-14.6-9.79-14.6s-9.87,3.63-9.87,14.6v12c0,11,2.44,14.6,9.78,14.6s9.88-3.63,9.88-14.6Z"/><path class="cls-1" d="M551.12,1177.48h13v49.69h25.4v10.55H551.12Z"/><path class="cls-1" d="M972.61,291.34A10.57,10.57,0,0,0,961.68,274L541.31,421.51a6.34,6.34,0,0,0,3.11,12.23l240.9-40.07a5,5,0,0,1,4.5,8.45L625.6,564.05c-.56.55-1.09,1.12-1.59,1.72a24.59,24.59,0,0,0,3,34.66L831.38,772.57a11.92,11.92,0,0,0,18-14.89L733.77,550.1a20.23,20.23,0,0,1,3.29-24.37Z"/><path class="cls-1" d="M483.83,421.51,63.47,274a10.57,10.57,0,0,0-10.93,17.36L288.09,525.73a20.23,20.23,0,0,1,3.28,24.37L175.78,757.68a11.92,11.92,0,0,0,18,14.89L398.11,600.43a24.6,24.6,0,0,0,3-34.66c-.5-.6-1-1.17-1.59-1.72L235.33,402.12a5,5,0,0,1,4.5-8.45l240.9,40.07a6.34,6.34,0,0,0,3.1-12.23Z"/><path class="cls-1" d="M557.8,361.08l406-130.64c6.48-2.08,4.18-11.76-2.54-10.7L628.65,272a30,30,0,0,1-33.36-20.81L519.14,4.84a6.87,6.87,0,0,0-13.13,0l-76.15,246.3A30.05,30.05,0,0,1,396.5,272L63.86,219.74c-6.73-1.06-9,8.62-2.55,10.7l406,130.64a17.62,17.62,0,0,0,23-15.47L510,90a2.55,2.55,0,0,1,5.09,0l19.73,255.6A17.61,17.61,0,0,0,557.8,361.08Z"/></g></g></svg>